<?xml version="1.0" encoding="utf-8"?>
<!-- Generator: Adobe Illustrator 16.0.0, SVG Export Plug-In . SVG Version: 6.00 Build 0)  -->
<!DOCTYPE svg PUBLIC "-//W3C//DTD SVG 1.1//EN" "http://www.w3.org/Graphics/SVG/1.1/DTD/svg11.dtd">
<svg version="1.1" id="logo" xmlns="http://www.w3.org/2000/svg" xmlns:xlink="http://www.w3.org/1999/xlink" x="0px" y="0px"
	 width="826.22px" height="300.58px" viewBox="0 0 826.22 300.58" enable-background="new 0 0 826.22 300.58" xml:space="preserve">
<g id="logoShape">
	<path id="s" fill-rule="evenodd" clip-rule="evenodd" fill="#FFFFFF" stroke="#000000" stroke-miterlimit="10" d="M825.72,108.42
		c-1.79,2.49-3.5,5.04-5.4,7.45c-6.19,7.85-12.09,9.31-17.52-0.84c-4.21-7.86-10-13.8-19.13-16.04c-5.96-1.46-11.25-0.45-14.38,4.55
		c-3.43,5.48,0.79,9.43,4.88,12.49c9.43,7.05,19.1,13.79,28.58,20.78c27.64,20.39,26.66,49.01-2.51,67.33
		c-29.11,18.29-56.07,9.44-80.88-11.24c-8.2-6.83-5.31-15.12,1.45-21.15c8.4-7.5,11.68,0.76,15.1,6.41
		c6.9,11.37,15.91,19.85,29.59,21.75c7.05,0.98,13.62-0.17,17.22-7.51c3.59-7.32-0.61-12.4-5.68-16.41
		c-10.31-8.14-20.92-15.91-31.65-23.48c-12.81-9.05-21.09-20.22-17.27-36.73c3.7-16.01,14.52-25.68,29.83-30.51
		c21.31-6.72,53.95,3.21,67.76,20.43C825.72,106.6,825.72,107.51,825.72,108.42z"/>
	<path id="dot1" fill-rule="evenodd" clip-rule="evenodd" fill="#FFFFFF" stroke="#000000" stroke-miterlimit="10" d="M594.17,198
		c0.15,10.23-8.45,19.11-18.73,19.31c-10.17,0.2-19.15-8.49-19.31-18.72c-0.17-10.2,8.53-19.17,18.73-19.32
		C585.09,179.12,594.02,187.78,594.17,198z"/>
	<path id="steer" fill-rule="evenodd" clip-rule="evenodd" fill="#FFFFFF" stroke="#000000" stroke-miterlimit="10" d="M557.7,111.1
		c1.11-6.41,2.13-12.34,3.29-19.02c-8.86,0-17.07,0.62-25.14-0.17c-7.84-0.77-9.79,2.83-10.96,9.61
		c-2.77,16.07-6.46,31.97-9.43,48.01c-0.95,5.14-2.23,9.54-7.13,12.33c-21.85,12.44-44.58,22.2-70.18,23.23
		c-6.75,0.27-13.54,0.16-18.52-7.22c24.58-5.45,45.65-15.75,60.87-35.75c7.98-10.49,10.75-21.8,5.32-34.31
		c-5.6-12.89-17.16-15.19-29.28-15.64c-39.76-1.52-77.64,28.5-85.48,67.66c-0.81,4.06-0.81,7.77-5.47,9.87
		c-18.68,8.4-37.63,15.67-58.54,15.39c-5.78-0.08-11.83-0.14-15.46-7.2c2.89-0.76,5.38-1.38,7.84-2.06
		c22.98-6.39,42.86-17.62,55.65-38.42c12.51-20.33,2.75-41.08-20.38-44.8c-38.34-6.16-84.77,26.6-91.73,64.72
		c-3.02,16.56-8.69,21.92-25.13,23.77c-12.61,1.42-19.09-4.62-17.78-17.29c1.25-12.15,3.64-24.2,4.66-36.36
		c0.82-9.82,4.21-15.21,15.03-13.14c10.07,1.92,15.54-2.07,15.34-12.73c-0.21-11.38-9.05-6.59-13.9-6.42
		c-8.47,0.29-9.93-2.74-8.14-10.1c2.67-10.99,4.9-22.09,7.22-33.17c2.55-12.19,0.67-14.13-11.41-10.18
		c-16.99,5.56-31.76,12.9-32.17,34.86c-0.15,8.35,0.97,20.5-15.27,18.92c-6.37-0.62-5.24,8.26-6.1,13.27
		c-0.92,5.34,3.16,5.94,6.95,5.51c9.25-1.06,7.72,4.87,6.88,10.28c-1.66,10.74-3.79,21.42-5.15,32.2
		c-2.69,21.33-2.52,21.35-24.98,23.03c6.99-28.4,1.7-42.84-22.49-60.75c-12.01-8.89-24.33-17.38-36.25-26.39
		c-5.33-4.03-12.1-8.63-7.73-16.61c3.99-7.3,11.51-7.91,19.16-6.35c12.75,2.6,19.95,11.64,25.98,22.14
		c2.72,4.75,5.77,10.52,12.4,7.6c7.24-3.19,12.72-9.27,14.34-17.12c1.46-7.07-3.45-11.75-9.1-15.33
		C117.72,55.81,98.5,49.31,77.7,49.09c-26.54-0.29-50.01,15.96-57,38.3c-6.86,21.89-0.7,35.29,25.2,54.47
		c12.02,8.9,24.31,17.44,36.14,26.58c6.97,5.39,13.04,11.9,9.14,21.93c-4.11,10.55-13.28,11.46-22.64,10.54
		C48.85,199,37.54,185.76,27.99,170.2c-7.6-12.39-13.7-12.49-22.18-0.99c-1.78,2.42-1.56,6.33-5.32,7.29c0,2.72,0,5.45,0,8.17
		c3.17,0.34,3.95,3.37,5.88,5.12c30.64,27.77,65.73,37.77,98.2,21.24c17.88-9.1,36.91-14.56,55.74-22.39
		c0.38,14.28,5.81,24.12,20.83,25.95c9.15,1.12,18.1,0.16,26.83-2.76c13.67-4.57,25.19-13.02,36.55-21.6
		c13.85,21.4,24.87,26.15,49.4,25.23c29.16-1.1,54.2-12.81,78.67-28.11c7.77,21.42,24.39,28.8,45.08,28.45
		c15.43-0.26,30.51-3.17,45.17-8.59c15.3-5.66,28.86-14.49,43.55-23.14c2.05,10.98-3.9,20.04-3.18,30.56
		c8.27,0,16.46-0.63,24.51,0.17c8.36,0.84,10.8-2.87,12.06-10.37c3-17.86,6.63-35.62,10.35-53.35
		c5.15-24.61,24.74-37.89,48.74-32.96c2.7,0.55,4.27-0.02,5.96-1.4c6.44-5.25,12.8-10.6,19.69-16.32
		C597.88,85.26,588.76,86.86,557.7,111.1z"/>
	<path id="j" fill-rule="evenodd" clip-rule="evenodd" fill="#FFFFFF" stroke="#000000" stroke-miterlimit="10" d="M704.36,92.62
		c-9.92-6.14-39.26,7.14-42.23,18.54c-2.22,8.56-1.1,18.36-8.37,25.23c-19.41,18.36-30.16,41.75-36.34,66.96
		c-7.58,30.9,7.3,89.26,17.65,89.26c14.9,0,23.34-13.47,31.04-25.45c6.63-10.33,12.2-21.2,15.34-33.05
		c11.47-43.33,17.48-87.72,25.28-131.76C707.37,98.76,708.11,94.93,704.36,92.62z"/>
	<path id="eCenter1" fill-rule="evenodd" clip-rule="evenodd" fill="#FFFFFF" stroke="#000000" stroke-miterlimit="10" d="
		M283.71,163.79c1.42-17.58,8.79-29.74,21.09-39.09c4.08-3.1,9.34-5.18,13.64-1.52c4.56,3.88,2.44,9.34-0.24,13.55
		C310.31,149.16,299.55,158.18,283.71,163.79z"/>
	<path id="eCenter2" fill-rule="evenodd" clip-rule="evenodd" fill="#FFFFFF" stroke="#000000" stroke-miterlimit="10" d="
		M412.16,163.61c1.42-17.68,8.9-30.22,21.89-39.5c4.07-2.9,9.17-4.63,13.38-0.15c3.73,3.97,1.97,8.55-0.46,12.46
		C439,149.29,428,158.34,412.16,163.61z"/>
	<path id="jCenter" fill-rule="evenodd" clip-rule="evenodd" fill="#FFFFFF" stroke="#000000" stroke-miterlimit="10" d="
		M641.52,241.49c-0.59,3.23-1.15,8.12-5.66,7.91c-3.2-0.15-4.42-4.08-4.93-7.26c-5.27-32.29,21.08-93.05,22.95-92
		C657.5,152.18,646.57,213.93,641.52,241.49z"/>
	<path id="dot2" fill-rule="evenodd" clip-rule="evenodd" fill="#FFFFFF" stroke="#000000" stroke-miterlimit="10" d="M715.36,45.13
		c0.21,13.73-11.34,25.64-25.13,25.91c-13.65,0.27-25.69-11.4-25.91-25.11C664.1,32.25,675.78,20.2,689.45,20
		C703.17,19.81,715.16,31.43,715.36,45.13z"/>
</g>
</svg>
