<?xml version="1.0" encoding="utf-8"?>
<!-- Generator: Adobe Illustrator 16.0.0, SVG Export Plug-In . SVG Version: 6.00 Build 0)  -->
<!DOCTYPE svg PUBLIC "-//W3C//DTD SVG 1.1//EN" "http://www.w3.org/Graphics/SVG/1.1/DTD/svg11.dtd">
<svg version="1.1" id="Layer_1" xmlns="http://www.w3.org/2000/svg" xmlns:xlink="http://www.w3.org/1999/xlink" x="0px" y="0px"
	 width="857.3px" height="517.1px" viewBox="0 0 857.3 517.1" enable-background="new 0 0 857.3 517.1" xml:space="preserve">
<path id="BG" fill="none" stroke="#D12828" stroke-width="10" stroke-miterlimit="10" d="M798.004,65.713
	c92.701,106.6,79.201,446.7-70.799,447.7c-149.102,1-104-96-298-91c-194,5-253.401,136.199-349.901,79.6
	c-129.2-75.9-82.8-423.8,38.8-468.6c122-45,71.4,114.3,236,36C495.604,2.113,707.004-38.987,798.004,65.713z"/>
<path id="roadPath" fill="none" stroke="#000000" stroke-width="3" stroke-miterlimit="10" d="M798.004,65.713
	c92.701,106.6,79.201,446.7-70.799,447.7c-129.056,2.744-122.769-96.711-293.6-95.097C250.15,420.05,157.578,566.192,79.305,502.013
	c-129.2-75.9-82.8-423.8,38.8-468.6c122-45,71.4,114.3,236,36C495.604,2.113,707.004-38.987,798.004,65.713z"/>
</svg>
